<svg xmlns="http://www.w3.org/2000/svg" viewBox="0 0 1600 1000" preserveAspectRatio="xMidYMid slice"><defs><linearGradient id="sky" x1="0" y1="0" x2="0" y2="1"><stop stop-color="#f7efe8"/><stop offset=".55" stop-color="#fbf8f3"/><stop offset="1" stop-color="#f0e5d7"/></linearGradient><linearGradient id="sea" x1="0" y1="0" x2="1" y2="0"><stop stop-color="#0d385f"/><stop offset=".55" stop-color="#427b91"/><stop offset="1" stop-color="#a8c5bd"/></linearGradient></defs><rect width="1600" height="1000" fill="url(#sky)"/><path d="M-70 710 C230 590,410 690,660 565 C880 455,1020 520,1240 445 C1410 388,1530 395,1690 350 L1690 1000 L-70 1000 Z" fill="#efe0cf" opacity=".78"/><path d="M-80 785 C245 635,440 760,710 620 C930 506,1090 590,1310 505 C1460 448,1540 478,1690 430 L1690 1000 L-80 1000 Z" fill="#d9c3a9" opacity=".52"/><path d="M0 805 C240 760,400 800,610 735 C825 667,990 715,1200 650 C1390 590,1510 610,1600 595 L1600 1000 L0 1000 Z" fill="url(#sea)" opacity=".45"/></svg>
