<svg xmlns="http://www.w3.org/2000/svg" viewBox="0 0 1600 1100" role="img" aria-labelledby="title desc">
  <title id="title">Mobile mechanic roadside service scene</title>
  <desc id="desc">A distinctive illustrated mobile mechanic hero image with a service van, open car bonnet, diagnostic tablet and roadside tools.</desc>
  <defs>
    <linearGradient id="sky" x1="0" y1="0" x2="1" y2="1">
      <stop offset="0" stop-color="#fff4ec"/>
      <stop offset="0.52" stop-color="#ffe3d0"/>
      <stop offset="1" stop-color="#f9b38b"/>
    </linearGradient>
    <linearGradient id="road" x1="0" y1="0" x2="1" y2="0">
      <stop offset="0" stop-color="#2c302f"/>
      <stop offset="1" stop-color="#151817"/>
    </linearGradient>
    <filter id="softShadow" x="-20%" y="-20%" width="140%" height="140%">
      <feDropShadow dx="0" dy="20" stdDeviation="24" flood-color="#3a1608" flood-opacity=".22"/>
    </filter>
  </defs>
  <rect width="1600" height="1100" fill="url(#sky)"/>
  <circle cx="1320" cy="190" r="210" fill="#fff7ed" opacity=".65"/>
  <path d="M0 738 C240 670 425 692 650 738 C890 790 1095 765 1600 646 L1600 1100 L0 1100 Z" fill="#ffffff" opacity=".4"/>
  <path d="M0 830 C290 760 570 800 815 850 C1088 906 1320 888 1600 810 L1600 1100 L0 1100 Z" fill="url(#road)"/>
  <path d="M88 966 C345 922 548 930 788 980 C1010 1026 1260 1022 1520 966" fill="none" stroke="#f1b565" stroke-width="12" stroke-linecap="round" stroke-dasharray="92 68" opacity=".9"/>
  <g filter="url(#softShadow)">
    <rect x="250" y="430" width="520" height="265" rx="42" fill="#fdf9f3"/>
    <rect x="314" y="472" width="176" height="92" rx="24" fill="#23302e"/>
    <rect x="524" y="472" width="152" height="92" rx="24" fill="#23302e"/>
    <path d="M280 648 L742 648 L805 748 L223 748 Z" fill="#d05b2d"/>
    <circle cx="350" cy="755" r="74" fill="#171a19"/>
    <circle cx="350" cy="755" r="34" fill="#f8efe6"/>
    <circle cx="682" cy="755" r="74" fill="#171a19"/>
    <circle cx="682" cy="755" r="34" fill="#f8efe6"/>
    <path d="M255 420 L360 340 L660 340 L760 430 Z" fill="#ffffff"/>
    <path d="M388 345 L660 345 L722 430 L330 430 Z" fill="#f08b53"/>
  </g>
  <g filter="url(#softShadow)">
    <path d="M900 572 C980 515 1084 490 1195 515 L1225 628 L1045 668 L910 642 Z" fill="#22302e"/>
    <path d="M900 572 L836 468 C930 434 1038 420 1140 442 L1195 515 C1084 490 980 515 900 572 Z" fill="#f7f2ec"/>
    <path d="M880 648 L1250 648 L1294 738 L828 738 Z" fill="#d05b2d"/>
    <circle cx="925" cy="742" r="62" fill="#171a19"/>
    <circle cx="925" cy="742" r="27" fill="#f8efe6"/>
    <circle cx="1192" cy="742" r="62" fill="#171a19"/>
    <circle cx="1192" cy="742" r="27" fill="#f8efe6"/>
  </g>
  <g transform="translate(1178 278)" filter="url(#softShadow)">
    <rect width="210" height="270" rx="26" fill="#1d2624"/>
    <rect x="24" y="32" width="162" height="142" rx="18" fill="#d8f7ed"/>
    <path d="M48 210 L162 210" stroke="#f9b38b" stroke-width="16" stroke-linecap="round"/>
    <path d="M58 80 C92 42 124 122 158 78" fill="none" stroke="#1d7a61" stroke-width="12" stroke-linecap="round"/>
  </g>
  <g transform="translate(120 808)">
    <rect x="0" y="54" width="245" height="84" rx="24" fill="#f7f2ec"/>
    <path d="M32 54 L64 0 L96 54 Z" fill="#d05b2d"/>
    <path d="M150 54 L182 0 L214 54 Z" fill="#d05b2d"/>
    <path d="M39 36 L88 36 M157 36 L207 36" stroke="#fff1e8" stroke-width="10" stroke-linecap="round"/>
  </g>
  <g fill="#341d14" opacity=".16">
    <circle cx="128" cy="162" r="14"/>
    <circle cx="198" cy="226" r="8"/>
    <circle cx="1440" cy="512" r="10"/>
    <circle cx="1498" cy="448" r="16"/>
  </g>
</svg>
