<svg xmlns="http://www.w3.org/2000/svg" viewBox="0 0 720 220" role="img"><defs><style>.p{font:900 118px Georgia,serif;fill:#082a63}.w{font:700 34px Georgia,serif}.b{fill:#082a63}.g{fill:#126b3a}.s{fill:none;stroke:#2b7fb3;stroke-width:4;stroke-linecap:round;stroke-linejoin:round}.h{fill:none;stroke:#5c9c6a;stroke-width:4;stroke-linecap:round;stroke-linejoin:round}.f{fill:none;stroke:#1c4f88;stroke-width:2;stroke-linecap:round;stroke-linejoin:round}</style></defs><text class="p" x="14" y="118">PBI</text><g transform="translate(210 22)"><path class="h" d="M15 85 C55 50,80 48,105 62 C142 21,186 28,221 65 C256 50,293 57,325 80 C375 64,425 75,485 98"/><path class="s" d="M5 135 C85 120,138 137,205 118 C285 96,350 116,440 102 C495 94,525 97,560 103"/><path class="f" d="M140 70 l22 -35 l22 36 M162 35 l34 4 M370 82 l12 -34 l18 36 M382 48 l31 6 M29 103 c42 8 75 7 111 -2 M225 90 c50 6 90 12 144 3"/></g><text class="w b" x="18" y="171">Purbeck Business</text><text class="w g" x="342" y="171">Innovations</text></svg>
