<svg xmlns="http://www.w3.org/2000/svg" viewBox="0 0 900 900" role="img" aria-labelledby="pbiLogoTitle pbiLogoDesc">
  <title id="pbiLogoTitle">PBI Design Studio</title>
  <desc id="pbiLogoDesc">PBI Design Studio monogram with copper coastal sunrise lines.</desc>
  <defs>
    <linearGradient id="pbiCopper" x1="0" x2="1" y1="0" y2="1">
      <stop offset="0" stop-color="#D4AF7A"/>
      <stop offset="0.55" stop-color="#B87A3D"/>
      <stop offset="1" stop-color="#8E572F"/>
    </linearGradient>
    <filter id="pbiSoftShadow" x="-20%" y="-20%" width="140%" height="140%">
      <feDropShadow dx="0" dy="18" stdDeviation="22" flood-color="#1E1E1E" flood-opacity="0.13"/>
    </filter>
  </defs>
  <rect width="900" height="900" rx="0" fill="none"/>
  <g filter="url(#pbiSoftShadow)">
    <circle cx="450" cy="360" r="210" fill="#FBF7EF" opacity="0.72"/>
    <g fill="none" stroke="url(#pbiCopper)" stroke-width="9" stroke-linecap="round" opacity="0.92">
      <path d="M254 376a202 202 0 0 1 392 0"/>
      <path d="M450 87v124"/>
      <path d="M353 124l44 111"/>
      <path d="M547 124l-44 111"/>
      <path d="M265 196l86 88"/>
      <path d="M635 196l-86 88"/>
      <path d="M199 300l112 45"/>
      <path d="M701 300l-112 45"/>
      <path d="M168 421l122 6"/>
      <path d="M732 421l-122 6"/>
      <path d="M211 534l107-55"/>
      <path d="M689 534l-107-55"/>
    </g>
    <g aria-hidden="true">
      <text x="450" y="472" text-anchor="middle" font-family="Georgia, 'Times New Roman', serif" font-size="196" font-weight="500" fill="#1E1E1E">PBI</text>
      <text x="450" y="595" text-anchor="middle" font-family="Inter, Arial, sans-serif" font-size="41" font-weight="800" letter-spacing="8" fill="#1E1E1E">DESIGN STUDIO</text>
      <line x1="318" y1="640" x2="582" y2="640" stroke="#B87A3D" stroke-width="5" stroke-linecap="round"/>
      <circle cx="450" cy="640" r="8" fill="#B87A3D"/>
    </g>
  </g>
</svg>
