<svg xmlns="http://www.w3.org/2000/svg" viewBox="0 0 140 140" role="img" aria-label="PBI logo">
  <defs>
    <linearGradient id="g" x1="0" x2="1" y1="0" y2="1">
      <stop offset="0" stop-color="#f97316"/>
      <stop offset="0.52" stop-color="#ffd166"/>
      <stop offset="1" stop-color="#0f6b4b"/>
    </linearGradient>
    <filter id="soft" x="-20%" y="-20%" width="140%" height="140%">
      <feDropShadow dx="0" dy="8" stdDeviation="8" flood-color="#2b1808" flood-opacity=".16"/>
    </filter>
  </defs>
  <circle cx="70" cy="70" r="61" fill="#fff8ef"/>
  <path d="M72 16v20M103 28 91 44M122 60h-20M111 96 94 84M69 124v-20M32 111l15-16M18 70h21M30 31l15 15" stroke="#f97316" stroke-width="6" stroke-linecap="round" opacity=".72"/>
  <path filter="url(#soft)" d="M33 84c8-30 26-47 55-51 12 14 18 30 17 49-14 17-32 25-55 24-8-5-13-12-17-22Z" fill="url(#g)"/>
  <path d="M48 82c12-10 25-16 43-17M56 96c10-8 22-12 38-12M57 54c9-5 18-8 29-9" fill="none" stroke="#17221d" stroke-width="5" stroke-linecap="round" opacity=".86"/>
  <text x="70" y="76" text-anchor="middle" font-size="28" font-family="Arial Rounded MT Bold, Avenir Next, sans-serif" font-weight="900" fill="#17221d">PBI</text>
</svg>
